#!OML:ASF I:\Actors\actors\Patient Classification 1\Patient 1\Session 1\Subject1.ASF
:FULLY-SPECIFIED
:DEGREES
550
root -0.741224 17.8002 7.87473 19.4572 9.21023 -10.056
lowerback 11.0038 3.82915 5.03183
upperback -1.64325 5.5355 -3.55812
thorax -7.08516 2.42706 -7.54787
lowerneck -15.5684 -2.03927 -1.36157
upperneck 21.856 -5.05229 10.7726
head 9.85573 -1.2189 3.34656
rclavicle 1.59028e-014 3.18055e-015
rhumerus 43.2204 57.5896 -37.7361
rradius 53.5467
rwrist -39.2364
rhand 0.0606118 -37.2052
rfingers 7.12502
rthumb 25.6484 -65.4976
lclavicle 1.59028e-014 3.18055e-015
lhumerus 24.5627 -50.5197 28.4867
lradius 58.8506
lwrist 80.3427
lhand -32.2786 -13.3777
lfingers 7.12502
lthumb -5.51769 16.5305
rfemur -16.3644 31.8277 21.5893
rtibia -0.237556
rfoot -13.8116 -37.4282
rtoes 12.2296
lfemur -20.4706 -38.6922 6.89346
ltibia 0.00379534
lfoot -9.8292 46.3761
ltoes 2.82596
551
root -0.742468 17.7976 7.88857 19.3309 9.25602 -9.94246
lowerback 10.6813 3.79318 4.83848
upperback -2.00127 5.45838 -3.50525
thorax -7.32204 2.37902 -7.36362
lowerneck -15.4948 -2.07412 -1.41295
upperneck 22.0293 -5.1342 10.8936
head 9.91456 -1.24314 3.39245
rclavicle 1.51076e-014 2.54444e-014
rhumerus 43.0546 58.1961 -37.9308
rradius 53.5891
rwrist -39.2063
rhand 0.0678726 -37.3837
rfingers 7.12502
rthumb 25.6554 -65.6751
lclavicle 1.51076e-014 2.54444e-014
lhumerus 23.9366 -50.6886 29.0925
lradius 58.7256
lwrist 80.1661
lhand -32.3055 -13.4988
lfingers 7.12502
lthumb -5.5437 16.4087
rfemur -16.1363 31.677 21.6511
rtibia -0.182409
rfoot -13.783 -37.3187
rtoes 12.1888
lfemur -20.2624 -38.8571 6.63317
ltibia 0.0323713
lfoot -9.92545 46.348
ltoes 2.99811
552
root -0.744524 17.7952 7.90203 19.1812 9.25115 -9.83039
lowerback 10.4182 3.75962 4.58978
upperback -2.36071 5.37833 -3.46911
thorax -7.59732 2.33079 -7.17226
lowerneck -15.3484 -2.11447 -1.44294
upperneck 22.0857 -5.21797 11.0198
head 9.9179 -1.27251 3.43319
rclavicle -6.36111e-015 -4.45278e-014
rhumerus 42.7689 58.7202 -38.3305
rradius 53.5995
rwrist -39.2266
rhand 0.133402 -37.4963
rfingers 7.12502
rthumb 25.7181 -65.7786
lclavicle -6.36111e-015 -4.45278e-014
lhumerus 23.1616 -50.6869 29.8271
lradius 58.6095
lwrist 80.2169
lhand -32.5099 -13.6028
lfingers 7.12502
lthumb -5.74104 16.2994
rfemur -15.8867 31.5287 21.7158
rtibia -0.119943
rfoot -13.8197 -37.1665
rtoes 12.2443
lfemur -19.9764 -39.1237 6.35238
ltibia 0.0131922
lfoot -10.0196 46.4721
ltoes 3.04001
553
root -0.746293 17.7924 7.9153 19.0597 9.20635 -9.80485
lowerback 10.152 3.74471 4.40067
upperback -2.7124 5.33148 -3.43509
thorax -7.8516 2.29858 -7.02101
lowerneck -15.5261 -2.17699 -1.50225
upperneck 22.5117 -5.38894 11.2172
head 10.1266 -1.31238 3.50361
rclavicle -4.77083e-015 3.18055e-014
rhumerus 42.3307 59.1018 -38.9332
rradius 53.554
rwrist -39.2438
rhand -3.10896 -38.7829
rfingers 7.12502
rthumb 22.6094 -67.4788
lclavicle -4.77083e-015 3.18055e-014
lhumerus 22.3755 -50.533 30.6205
lradius 58.5489
lwrist 80.1897
lhand -32.8715 -13.551
lfingers 7.12502
lthumb -6.09012 16.3415
rfemur -15.6724 31.3528 21.8537
rtibia -0.0869444
rfoot -13.8747 -36.936
rtoes 12.3853
lfemur -19.689 -39.343 6.17007
ltibia -0.0245731
lfoot -10.0726 46.6159
ltoes 2.92394
554
root -0.750808 17.7906 7.929 18.993 9.12938 -9.80965
lowerback 9.88104 3.76991 4.22662
upperback -3.07385 5.33898 -3.42594
thorax -8.1022 2.29271 -6.91337
lowerneck -15.7128 -2.24223 -1.462
upperneck 22.8488 -5.56257 11.3344
head 10.3023 -1.35619 3.52543
rclavicle 1.19271e-015 3.02153e-014
rhumerus 41.6823 59.3716 -39.7484
rradius 53.5014
rwrist -39.3811
rhand -0.222504 -37.9319
rfingers 7.12502
rthumb 25.3772 -66.2631
lclavicle 1.19271e-015 3.02153e-014
lhumerus 21.8895 -50.4546 31.1321
lradius 58.5176
lwrist 79.9632
lhand -33.0797 -13.4498
lfingers 7.12502
lthumb -6.29112 16.4368
rfemur -15.5174 31.2142 21.9909
rtibia -0.0915743
rfoot -13.8434 -36.73
rtoes 12.2669
lfemur -19.4359 -39.5476 6.07802
ltibia -0.10193
lfoot -10.1806 46.7983
ltoes 2.70901
555
root -0.757165 17.7897 7.94263 18.97 9.03938 -9.84181
lowerback 9.64064 3.82579 4.13744
upperback -3.48299 5.39668 -3.47281
thorax -8.40336 2.30277 -6.92831
lowerneck -15.762 -2.30602 -1.4339
upperneck 23.0099 -5.73068 11.5333
head 10.3917 -1.39953 3.57474
rclavicle -1.31198e-014 -1.43125e-014
rhumerus 40.9108 59.6398 -40.6842
rradius 53.4561
rwrist -39.6085
rhand -4.78955 -39.4846
rfingers 7.12502
rthumb 20.9956 -68.3682
lclavicle -1.31198e-014 -1.43125e-014
lhumerus 21.7481 -50.6591 31.1626
lradius 58.4852
lwrist 79.5741
lhand -32.9853 -13.4088
lfingers 7.12502
lthumb -6.2 16.4804
rfemur -15.4224 31.1306 22.1175
rtibia -0.115326
rfoot -13.7301 -36.5761
rtoes 11.9639
lfemur -19.2622 -39.7958 6.09558
ltibia -0.171023
lfoot -10.4143 47.063
ltoes 2.63169
